<svg width="24" height="24" viewBox="0 0 24 24" fill="none" xmlns="http://www.w3.org/2000/svg">
<path d="M19.0176 1.3716C18.9627 1.31544 18.8972 1.27083 18.8248 1.24041C18.7524 1.20999 18.6747 1.19438 18.5961 1.19449C18.5176 1.1946 18.4399 1.21044 18.3676 1.24106C18.2953 1.27169 18.2299 1.31648 18.1752 1.3728C18.0651 1.48834 18.0044 1.64234 18.0062 1.80196C18.008 1.96157 18.0721 2.11417 18.1848 2.2272C19.0482 3.09203 19.6987 4.14572 20.085 5.30508C20.4714 6.46445 20.5829 7.69774 20.4108 8.9076C20.3886 9.06544 20.4288 9.22572 20.5229 9.35436C20.617 9.48299 20.7576 9.56983 20.9148 9.5964C20.9924 9.60878 21.0717 9.60548 21.148 9.5867C21.2243 9.56791 21.296 9.53403 21.359 9.48705C21.422 9.44006 21.4749 9.38093 21.5147 9.31315C21.5544 9.24537 21.5802 9.17031 21.5904 9.0924C21.7886 7.69413 21.6594 6.26893 21.2129 4.92912C20.7665 3.5893 20.015 2.37147 19.0176 1.3716ZM5.5512 3.6396C5.5685 3.21122 5.72869 2.80094 6.00623 2.47417C6.28377 2.14739 6.6627 1.9229 7.08264 1.83648C7.50258 1.75007 7.93935 1.80669 8.32337 1.99733C8.70739 2.18797 9.01656 2.50166 9.2016 2.8884C9.43979 2.67554 9.72731 2.52547 10.0381 2.45179C10.349 2.37811 10.6733 2.38314 10.9816 2.46643C11.29 2.54973 11.5728 2.70865 11.8042 2.9288C12.0357 3.14895 12.2086 3.42337 12.3072 3.7272L12.4128 4.0512C12.6538 3.85031 12.9403 3.71154 13.2474 3.64702C13.5544 3.58251 13.8726 3.59422 14.1741 3.68113C14.4755 3.76804 14.7511 3.9275 14.9767 4.14557C15.2022 4.36363 15.3709 4.63365 15.468 4.932L16.7472 8.808L17.448 10.8528C17.9624 12.356 18.1186 13.9586 17.904 15.5328L17.58 17.9184C17.5096 18.4365 17.305 18.9272 16.9866 19.3418C16.6681 19.7565 16.2468 20.0807 15.7644 20.2824L13.1748 21.3636C12.0084 21.8508 10.6932 21.5412 9.81 20.6952C6.078 17.1168 2.7552 15.9312 1.842 15.6564C1.4124 15.5268 1.0452 15.0324 1.2732 14.49C1.4532 14.0628 1.8852 13.314 2.8104 12.9048C3.522 12.5892 4.4436 12.5088 5.6304 12.8232L3.318 6.1212C3.16056 5.63503 3.20178 5.10632 3.43265 4.65041C3.66353 4.19451 4.06533 3.8484 4.5504 3.6876C4.8864 3.5784 5.2308 3.5676 5.5512 3.6396ZM8.1312 8.0136L8.7972 10.0284C8.82194 10.1033 8.8317 10.1823 8.82591 10.2609C8.82012 10.3395 8.79891 10.4162 8.76347 10.4866C8.72804 10.5571 8.67908 10.6198 8.61939 10.6713C8.5597 10.7228 8.49046 10.7621 8.4156 10.7868C8.34075 10.8115 8.26175 10.8213 8.18313 10.8155C8.10451 10.8097 8.02779 10.7885 7.95737 10.7531C7.81514 10.6815 7.70717 10.5564 7.6572 10.4052L6.9756 8.3412L5.8332 5.3184L5.8284 5.3064C5.77065 5.1233 5.64294 4.97041 5.47306 4.88097C5.30317 4.79153 5.10484 4.77278 4.9212 4.8288C4.73966 4.89101 4.58962 5.02169 4.50308 5.19297C4.41655 5.36425 4.40037 5.56256 4.458 5.7456L7.1664 13.6032C7.20416 13.7131 7.20921 13.8315 7.18095 13.9442C7.15269 14.0569 7.09233 14.1589 7.0072 14.2379C6.92207 14.317 6.81582 14.3696 6.70136 14.3894C6.58691 14.4092 6.46915 14.3954 6.3624 14.3496C4.764 13.6656 3.8268 13.7664 3.2952 14.0016C2.9424 14.1576 2.7072 14.4012 2.556 14.6256C3.9168 15.0912 7.116 16.452 10.6392 19.8288C11.208 20.3736 12.0228 20.544 12.7116 20.2572L15.3 19.1748C15.5893 19.0539 15.8421 18.8596 16.0332 18.611C16.2243 18.3625 16.3471 18.0683 16.3896 17.7576L16.7136 15.372C16.9032 13.9827 16.7655 12.5683 16.3116 11.2416L15.6096 9.1932L15.6072 9.1872L14.3268 5.3064V5.304C14.2714 5.12944 14.1516 4.98254 13.9917 4.89322C13.8318 4.8039 13.6439 4.77886 13.4662 4.82321C13.2885 4.86756 13.1344 4.97795 13.0352 5.13193C12.936 5.2859 12.8993 5.47188 12.9324 5.652L13.9584 8.8116C14.0058 8.96216 13.9919 9.12532 13.9198 9.26572C13.8477 9.40613 13.7232 9.51248 13.5733 9.56173C13.4233 9.61097 13.26 9.59915 13.1187 9.52883C12.9774 9.4585 12.8695 9.33533 12.8184 9.186L12.8124 9.1872L11.8164 6.12C11.8003 6.0685 11.7858 6.01647 11.7732 5.964L11.166 4.0992C11.1031 3.92277 10.9738 3.77781 10.8057 3.6951C10.6377 3.6124 10.444 3.59846 10.2658 3.65624C10.0876 3.71402 9.93892 3.83898 9.85136 4.00459C9.7638 4.17019 9.74423 4.3634 9.7968 4.5432L10.5204 6.7704C10.5348 6.8152 10.544 6.86 10.548 6.9048L11.1804 8.8152C11.2304 8.96638 11.2182 9.13121 11.1467 9.27343C11.0751 9.41566 10.95 9.52364 10.7988 9.5736C10.6476 9.62357 10.4828 9.61144 10.3406 9.53987C10.1983 9.46831 10.0904 9.34318 10.0404 9.192L8.1528 3.492C8.09265 3.31075 7.96296 3.16082 7.79227 3.07519C7.62157 2.98957 7.42385 2.97525 7.2426 3.0354C7.06135 3.09555 6.91142 3.22524 6.82579 3.39594C6.74016 3.56663 6.72585 3.76435 6.786 3.9456L8.1084 7.9416L8.136 8.0136H8.1312ZM17.0916 3.684C17.1593 3.64354 17.2343 3.61681 17.3123 3.60535C17.3903 3.59388 17.4698 3.59791 17.5462 3.61719C17.6227 3.63647 17.6946 3.67063 17.7578 3.71771C17.8211 3.7648 17.8744 3.82389 17.9148 3.8916L18.27 4.4856C18.8676 5.4864 19.1892 6.6276 19.2 7.794C19.2014 7.95313 19.1396 8.10631 19.0281 8.21985C18.9166 8.33338 18.7645 8.39797 18.6054 8.3994C18.4463 8.40083 18.2931 8.33899 18.1796 8.22749C18.066 8.11598 18.0014 7.96393 18 7.8048C17.9914 6.85214 17.7292 5.91896 17.2404 5.1012L16.8852 4.5072C16.8447 4.4396 16.8179 4.36468 16.8063 4.28672C16.7948 4.20876 16.7987 4.12929 16.8179 4.05285C16.837 3.9764 16.8711 3.90448 16.918 3.84119C16.965 3.77791 17.024 3.72449 17.0916 3.684Z" fill="black"/>
</svg>
