<svg width="468" height="87" viewBox="0 0 468 87" fill="none" xmlns="http://www.w3.org/2000/svg">
<path d="M0 5.0137H188.116V85.9765H0V5.0137Z" fill="url(#paint0_linear_214_726)"/>
<path d="M55.5623 85.9765H36.0623L44.8037 44.7154H64.4958L55.5623 85.9765ZM66.9934 32.1452C66.9934 33.6165 66.6732 34.896 66.0328 35.9835C65.4564 37.071 64.6559 37.9985 63.6313 38.7662C62.6707 39.5338 61.55 40.1096 60.2692 40.4934C58.9884 40.8772 57.6756 41.0691 56.3308 41.0691C53.7692 41.0691 51.6239 40.4614 49.8948 39.246C48.1657 38.0305 47.3012 36.1114 47.3012 33.4886C47.3012 32.0813 47.5894 30.8338 48.1657 29.7463C48.7421 28.5949 49.5106 27.6673 50.4712 26.9636C51.4958 26.196 52.6485 25.6202 53.9293 25.2364C55.2741 24.8526 56.651 24.6607 58.0599 24.6607C60.5574 24.6607 62.6707 25.2684 64.3998 26.4838C66.1288 27.6993 66.9934 29.5864 66.9934 32.1452Z" fill="#FEFEFE"/>
<path d="M94.1551 56.8059C94.2192 56.486 94.2832 56.1662 94.3473 55.8463C94.4113 55.5265 94.4433 55.1746 94.4433 54.7908C94.4433 53.6393 94.2192 52.5838 93.7709 51.6243C93.3867 50.6007 92.5862 50.089 91.3694 50.089C90.2807 50.089 89.1921 50.5687 88.1034 51.5283C87.0147 52.4239 86.4704 53.6393 86.4704 55.1746C86.4704 56.1982 86.7265 57.0298 87.2389 57.6695C87.8152 58.2452 88.5517 58.725 89.4482 59.1088C90.3448 59.4926 91.3374 59.8125 92.4261 60.0684C93.5788 60.3243 94.6995 60.5801 95.7882 60.836C97.3251 61.2199 98.766 61.6996 100.111 62.2754C101.52 62.7871 102.768 63.4908 103.857 64.3864C104.946 65.282 105.81 66.4015 106.451 67.7449C107.091 69.0243 107.411 70.6235 107.411 72.5426C107.411 75.2294 106.771 77.5004 105.49 79.3555C104.273 81.1467 102.544 82.618 100.303 83.7695C98.1256 84.857 95.532 85.6246 92.5221 86.0724C89.5763 86.5202 86.4064 86.7441 83.0123 86.7441C77.8251 86.7441 73.5344 86.3603 70.1403 85.5926C66.7462 84.825 64.3768 84.0893 63.0319 83.3857L65.0492 73.7901H78.0172C77.9531 74.1099 77.9211 74.4298 77.9211 74.7496C77.9211 75.0055 77.9211 75.2934 77.9211 75.6132C77.9211 77.0846 78.2413 78.268 78.8817 79.1636C79.5861 79.9952 80.7709 80.411 82.4359 80.411C84.2931 80.411 85.6059 79.8993 86.3743 78.8757C87.2068 77.7882 87.6231 76.7967 87.6231 75.9011C87.6231 75.0055 87.2709 74.2379 86.5665 73.5982C85.9261 72.8945 85.0935 72.3187 84.0689 71.871C83.0443 71.3592 81.8916 70.9434 80.6108 70.6235C79.394 70.2397 78.2093 69.8879 77.0566 69.568C76.2241 69.3761 75.2635 69.0562 74.1748 68.6085C73.1502 68.1607 72.1576 67.521 71.197 66.6893C70.2364 65.8577 69.4359 64.8022 68.7955 63.5228C68.1551 62.1794 67.8349 60.5162 67.8349 58.5331C67.8349 55.7184 68.5073 53.3835 69.8521 51.5283C71.261 49.6092 73.0541 48.0739 75.2315 46.9224C77.4728 45.771 79.9704 44.9393 82.7241 44.4276C85.5418 43.9158 88.3596 43.6599 91.1773 43.6599C94.6995 43.6599 98.0295 43.9798 101.167 44.6195C104.305 45.2592 106.867 46.0908 108.852 47.1143L106.643 56.8059H94.1551Z" fill="#FEFEFE"/>
<path d="M140.858 43.6599C148.479 43.6599 154.018 45.0033 157.476 47.6901C161.127 50.5048 162.952 55.1746 162.952 61.6996C162.952 65.7298 162.279 69.3761 160.935 72.6386C159.59 75.8371 157.701 78.4919 155.267 80.6029C150.4 84.6971 143.356 86.7441 134.134 86.7441C126.257 86.7441 120.622 85.2408 117.228 82.2342C113.577 79.0996 111.752 74.3978 111.752 68.1287C111.752 63.9706 112.585 60.1963 114.25 56.8059C115.979 53.4154 118.444 50.6007 121.646 48.3618C126.321 45.2272 132.725 43.6599 140.858 43.6599ZM134.326 80.2191C135.927 80.2191 137.304 79.3235 138.457 77.5324C139.673 75.7412 140.634 73.5662 141.339 71.0074C142.043 68.3846 142.555 65.6978 142.875 62.9471C143.26 60.1324 143.452 57.7015 143.452 55.6544C143.452 53.8632 143.26 52.5199 142.875 51.6243C142.555 50.6647 141.819 50.1849 140.666 50.1849C138.937 50.1849 137.432 51.1125 136.151 52.9676C134.935 54.8228 133.942 57.0298 133.173 59.5886C132.405 62.1474 131.829 64.7702 131.444 67.457C131.124 70.1437 130.964 72.3187 130.964 73.982C130.964 78.1401 132.085 80.2191 134.326 80.2191Z" fill="#FEFEFE"/>
<path d="M175.342 4.73382H206.594L208.771 60.1323L230.16 4.73382H255.52L258.85 60.1323L280.367 4.73382H293.815L262.18 85.9765H233.362L230.672 40.0456L211.461 85.9765H180.722L175.342 4.73382Z" fill="#082830"/>
<path d="M291.646 35.6956C296.001 33.5632 300.441 32.0279 304.966 31.0897C309.577 30.0662 314.7 29.5544 320.336 29.5544C325.801 29.5544 330.326 29.9809 333.912 30.8338C337.498 31.6868 340.359 32.9235 342.493 34.5441C344.628 36.1647 346.122 38.0838 346.976 40.3015C347.83 42.5191 348.257 45.0353 348.257 47.85C348.257 49.4706 348.129 51.2191 347.873 53.0956C347.702 54.9721 347.489 56.55 347.232 57.8294L341.213 85.9765H320.592L318.287 77.7882H317.518C314.786 80.7735 311.584 83.0765 307.912 84.6971C304.326 86.2324 300.74 87 297.153 87C295.104 87 293.098 86.7015 291.134 86.1044C289.17 85.5073 287.419 84.6118 285.883 83.4176C284.346 82.1382 283.107 80.5603 282.168 78.6838C281.229 76.7221 280.759 74.3765 280.759 71.6471C280.759 67.2118 281.955 63.7147 284.346 61.1559C286.822 58.5118 290.024 56.55 293.951 55.2706C297.965 53.9059 302.447 53.0529 307.4 52.7118C312.438 52.3706 317.475 52.2 322.513 52.2C322.684 51.3471 322.897 50.1529 323.154 48.6176C323.41 46.9971 323.538 45.5897 323.538 44.3956C323.538 42.8603 323.111 41.4529 322.257 40.1735C321.489 38.8088 319.823 38.1265 317.262 38.1265C314.273 38.1265 312.053 39.0221 310.602 40.8132C309.236 42.5191 308.339 44.6088 307.912 47.0824H289.213L291.646 35.6956ZM321.104 58.2132H318.799C316.323 58.2132 314.188 58.5544 312.395 59.2368C310.687 59.8338 309.278 60.6441 308.168 61.6676C307.144 62.6912 306.375 63.8426 305.863 65.1221C305.351 66.4015 305.094 67.6809 305.094 68.9603C305.094 71.0073 305.607 72.5426 306.631 73.5662C307.741 74.5897 309.022 75.1015 310.474 75.1015C312.267 75.1015 314.017 74.4618 315.725 73.1823C317.518 71.9029 318.628 70.1971 319.055 68.0647L321.104 58.2132Z" fill="#082830"/>
<path d="M377.44 85.9765H351.312L369.499 0H395.755L377.44 85.9765Z" fill="#082830"/>
<path d="M421.251 54.2471L451.094 30.9618H468L442.512 51.8162L461.596 85.9765H432.906L419.842 60.2603L414.463 85.9765H388.335L406.522 0H432.778L421.251 54.2471Z" fill="#082830"/>
<defs>
<linearGradient id="paint0_linear_214_726" x1="234" y1="0" x2="234" y2="87" gradientUnits="userSpaceOnUse">
<stop stop-color="#176AA7"/>
<stop offset="1" stop-color="#092941"/>
</linearGradient>
</defs>
</svg>
