<svg width="24" height="24" viewBox="0 0 24 24" fill="none" xmlns="http://www.w3.org/2000/svg">
<path d="M18 4.79999H21.6V22.8H2.39999V4.79999H5.99999V3.59999C5.99999 3.10799 6.17999 2.68799 6.52799 2.32799C6.87599 1.97999 7.30799 1.79999 7.79999 1.79999C8.29199 1.79999 8.72399 1.97999 9.07199 2.32799C9.41999 2.68799 9.59999 3.10799 9.59999 3.59999V4.79999H14.4V3.59999C14.4 3.10799 14.58 2.68799 14.928 2.32799C15.276 1.97999 15.708 1.79999 16.2 1.79999C16.692 1.79999 17.124 1.97999 17.472 2.32799C17.82 2.68799 18 3.10799 18 3.59999V4.79999ZM7.19999 3.59999V6.59999C7.19836 6.67923 7.21276 6.75798 7.24234 6.83152C7.27191 6.90505 7.31605 6.97185 7.37209 7.02789C7.42813 7.08394 7.49493 7.12807 7.56846 7.15765C7.642 7.18722 7.72075 7.20162 7.79999 7.19999C7.87924 7.20162 7.95799 7.18722 8.03152 7.15765C8.10506 7.12807 8.17185 7.08394 8.2279 7.02789C8.28394 6.97185 8.32808 6.90505 8.35765 6.83152C8.38723 6.75798 8.40163 6.67923 8.39999 6.59999V3.59999C8.39999 3.43199 8.33999 3.28799 8.21999 3.17999C8.11199 3.05999 7.96799 2.99999 7.79999 2.99999C7.63199 2.99999 7.48799 3.05999 7.37999 3.17999C7.25999 3.28799 7.19999 3.43199 7.19999 3.59999ZM15.6 3.59999V6.59999C15.6 6.76799 15.66 6.91199 15.768 7.03199C15.888 7.13999 16.032 7.19999 16.2 7.19999C16.368 7.19999 16.512 7.13999 16.632 7.03199C16.74 6.91199 16.8 6.76799 16.8 6.59999V3.59999C16.8016 3.52075 16.7872 3.44199 16.7577 3.36846C16.7281 3.29492 16.6839 3.22813 16.6279 3.17208C16.5719 3.11604 16.5051 3.0719 16.4315 3.04233C16.358 3.01276 16.2792 2.99835 16.2 2.99999C16.1208 2.99835 16.042 3.01276 15.9685 3.04233C15.8949 3.0719 15.8281 3.11604 15.7721 3.17208C15.716 3.22813 15.6719 3.29492 15.6423 3.36846C15.6128 3.44199 15.5984 3.52075 15.6 3.59999ZM20.4 21.6V9.59999H3.59999V21.6H20.4ZM8.39999 10.8V13.2H5.99999V10.8H8.39999ZM10.8 10.8H13.2V13.2H10.8V10.8ZM15.6 13.2V10.8H18V13.2H15.6ZM8.39999 14.4V16.8H5.99999V14.4H8.39999ZM10.8 14.4H13.2V16.8H10.8V14.4ZM15.6 16.8V14.4H18V16.8H15.6ZM8.39999 18V20.4H5.99999V18H8.39999ZM13.2 20.4H10.8V18H13.2V20.4ZM18 20.4H15.6V18H18V20.4Z" fill="black"/>
</svg>
